<svg xmlns="http://www.w3.org/2000/svg" xmlns:xlink="http://www.w3.org/1999/xlink" width="1080" zoomAndPan="magnify" viewBox="0 0 810 404.99999" height="540" preserveAspectRatio="xMidYMid meet" version="1.0"><path fill="#55b02e" d="M 75.839844 236.390625 C 65.746094 232.640625 55.359375 232.0625 45.839844 234.65625 C 39.207031 236.390625 32.859375 239.851562 27.089844 244.175781 L 23.054688 247.636719 L 21.898438 248.792969 L 24.496094 251.101562 C 24.785156 251.101562 24.785156 251.390625 25.074219 251.675781 C 25.648438 252.253906 26.226562 252.542969 27.089844 253.117188 L 28.820312 254.273438 L 30.554688 252.832031 C 30.839844 252.542969 31.417969 251.964844 31.996094 251.675781 C 37.1875 247.351562 42.957031 244.464844 49.015625 243.023438 C 56.800781 241.003906 65.167969 241.292969 73.53125 244.464844 C 80.457031 247.0625 94.589844 250.234375 111.609375 243.023438 L 112.183594 242.734375 L 113.050781 241.871094 C 113.050781 241.582031 113.339844 241.582031 113.628906 241.292969 C 115.070312 239.5625 116.511719 237.832031 117.664062 235.8125 L 123.433594 226.871094 L 114.203125 232.0625 C 100.648438 239.5625 88.242188 241.003906 75.839844 236.390625 Z M 75.839844 236.390625 " fill-opacity="1" fill-rule="nonzero"/><path fill="#55b02e" d="M 36.320312 205.234375 C 44.109375 203.214844 52.472656 203.503906 60.839844 206.675781 C 70.070312 210.140625 93.722656 215.042969 120.261719 191.101562 L 124.585938 186.773438 L 126.027344 185.332031 L 125.453125 183.890625 C 125.164062 182.734375 124.585938 181.292969 124.007812 179.851562 L 122.566406 175.8125 L 119.683594 178.699219 C 119.394531 179.273438 118.816406 179.5625 118.242188 180.140625 C 105.546875 193.121094 85.933594 206.390625 63.433594 198.3125 C 53.339844 194.5625 42.953125 193.984375 33.433594 196.582031 C 24.203125 199.179688 16.128906 204.082031 8.628906 211.003906 L 8.628906 210.714844 L 4.300781 215.332031 C 4.300781 215.621094 4.011719 215.621094 3.722656 215.90625 L 2.859375 216.773438 L 3.148438 217.925781 C 3.4375 219.371094 4.011719 220.8125 4.300781 222.253906 L 6.03125 226.867188 L 8.917969 223.121094 C 9.207031 222.542969 9.78125 222.253906 10.070312 221.675781 C 16.128906 216.195312 24.492188 208.410156 36.320312 205.234375 Z M 36.320312 205.234375 " fill-opacity="1" fill-rule="nonzero"/><path fill="#55b02e" d="M 8.339844 200.042969 C 14.976562 193.121094 22.476562 188.792969 30.550781 186.488281 C 38.339844 184.46875 46.707031 184.757812 55.070312 187.929688 C 81.03125 197.449219 103.53125 181.871094 113.339844 173.507812 L 117.089844 169.757812 L 118.53125 168.601562 L 117.375 166.871094 C 116.511719 166.007812 115.933594 164.851562 115.070312 163.699219 L 113.339844 161.390625 L 111.320312 163.410156 C 111.03125 163.699219 110.453125 164.277344 110.164062 164.5625 C 98.050781 176.101562 79.300781 187.929688 57.957031 179.851562 C 47.859375 176.101562 37.476562 175.527344 27.957031 178.121094 C 21.898438 179.851562 16.128906 182.738281 10.359375 186.488281 L 4.304688 191.390625 C 3.726562 191.96875 3.4375 192.253906 2.859375 192.832031 L 2.285156 193.410156 L 2.285156 194.273438 C 1.996094 196.292969 1.996094 198.3125 1.707031 200.042969 L 1.417969 207.253906 L 6.324219 202.0625 C 6.898438 201.484375 7.476562 200.621094 8.339844 200.042969 Z M 8.339844 200.042969 " fill-opacity="1" fill-rule="nonzero"/><path fill="#55b02e" d="M 84.207031 256.003906 L 83.628906 257.734375 L 84.207031 256.003906 C 83.339844 255.714844 82.765625 255.425781 81.898438 255.140625 C 71.804688 251.390625 61.417969 250.8125 51.898438 253.410156 C 49.878906 253.984375 47.863281 254.5625 45.84375 255.425781 L 38.917969 258.601562 L 37.1875 259.464844 L 42.957031 261.484375 C 44.6875 262.0625 46.417969 262.640625 48.148438 263.214844 L 49.015625 263.503906 L 49.878906 263.214844 C 50.746094 262.925781 51.609375 262.351562 52.476562 262.351562 C 53.054688 262.351562 53.628906 262.0625 54.207031 261.773438 C 61.128906 260.042969 68.628906 260.042969 76.707031 262.640625 C 77.570312 262.925781 78.148438 263.214844 79.015625 263.503906 L 80.457031 264.082031 L 81.320312 263.792969 C 83.339844 263.214844 85.648438 262.640625 87.378906 261.773438 L 95.457031 258.890625 L 87.089844 256.871094 C 86.226562 256.582031 85.070312 256.292969 84.207031 256.003906 Z M 84.207031 256.003906 " fill-opacity="1" fill-rule="nonzero"/><path fill="#55b02e" d="M 128.335938 196.292969 L 124.011719 200.621094 C 123.433594 201.199219 122.855469 201.773438 122.277344 202.351562 C 110.453125 213.601562 91.414062 225.714844 70.070312 217.640625 C 59.972656 213.890625 49.589844 213.3125 40.070312 215.910156 C 31.128906 218.503906 23.050781 223.121094 15.839844 230.042969 L 12.089844 234.082031 L 10.9375 235.523438 L 12.089844 237.253906 C 12.957031 238.40625 13.53125 239.273438 14.109375 240.425781 L 15.839844 243.023438 L 17.859375 240.425781 C 18.148438 240.136719 18.722656 239.5625 19.011719 239.273438 C 25.9375 231.773438 33.4375 227.15625 42.089844 224.851562 C 49.878906 222.832031 58.242188 223.121094 66.609375 226.292969 C 73.820312 228.890625 81.320312 229.753906 88.820312 228.890625 C 102.085938 227.445312 115.355469 219.945312 125.164062 211.582031 C 125.742188 211.003906 126.316406 210.714844 126.894531 210.140625 L 127.761719 209.273438 L 127.761719 208.410156 C 127.761719 206.679688 128.046875 204.660156 128.046875 202.929688 Z M 128.335938 196.292969 " fill-opacity="1" fill-rule="nonzero"/><path fill="#55b02e" d="M 18.722656 169.753906 L 17.859375 168.023438 L 18.722656 169.753906 C 20.453125 168.890625 22.472656 168.3125 24.203125 167.738281 C 31.992188 165.71875 40.359375 166.003906 48.722656 169.179688 C 54.203125 171.199219 59.683594 172.0625 65.742188 172.0625 C 77.855469 172.0625 89.972656 167.738281 101.222656 159.371094 L 105.546875 155.910156 L 106.992188 154.757812 L 104.394531 152.738281 C 103.527344 151.871094 102.375 151.007812 101.222656 150.429688 L 99.492188 149.273438 L 98.046875 150.429688 C 97.472656 150.71875 97.183594 151.292969 96.605469 151.582031 C 81.316406 163.121094 66.03125 166.292969 51.605469 160.8125 C 41.222656 157.0625 30.839844 156.199219 20.453125 159.371094 C 19.589844 159.660156 18.722656 159.949219 17.570312 160.238281 L 16.992188 160.523438 L 16.128906 161.390625 C 16.128906 161.679688 15.839844 161.679688 15.550781 161.96875 C 14.398438 163.699219 12.953125 165.140625 11.800781 166.871094 L 6.320312 175.234375 L 15.261719 170.621094 C 16.703125 170.621094 17.859375 170.042969 18.722656 169.753906 Z M 18.722656 169.753906 " fill-opacity="1" fill-rule="nonzero"/><path fill="#55b02e" d="M 42.378906 150.140625 L 43.242188 150.429688 C 46.992188 151.871094 52.761719 153.3125 59.972656 153.3125 C 67.472656 153.3125 74.683594 151.582031 81.894531 148.699219 L 90.839844 144.371094 L 84.78125 142.351562 C 83.050781 141.777344 81.320312 141.199219 79.300781 140.910156 L 78.433594 140.910156 L 77.570312 141.199219 C 76.703125 141.488281 75.839844 142.0625 74.972656 142.351562 C 66.320312 145.527344 57.667969 146.101562 49.300781 143.796875 C 48.4375 143.507812 47.570312 143.21875 46.703125 142.929688 L 45.839844 142.640625 L 44.972656 142.929688 C 43.242188 143.507812 41.511719 144.082031 39.78125 144.949219 L 33.148438 147.832031 L 40.070312 149.851562 C 40.648438 149.5625 41.511719 149.851562 42.378906 150.140625 Z M 42.378906 150.140625 " fill-opacity="1" fill-rule="nonzero"/><path fill="#a6a6a6" d="M 189.183594 251.203125 L 189.183594 197.820312 L 176.582031 197.820312 L 176.582031 185.609375 L 193.726562 185.609375 L 189.183594 189.765625 L 189.183594 179.765625 C 189.183594 171.625 191.21875 165.476562 195.285156 161.320312 C 199.441406 157.164062 205.460938 155.085938 213.339844 155.085938 C 215.246094 155.085938 217.238281 155.214844 219.316406 155.476562 C 221.480469 155.734375 223.34375 156.210938 224.902344 156.90625 L 224.902344 169.632812 C 223.777344 169.199219 222.433594 168.855469 220.875 168.59375 C 219.316406 168.335938 217.800781 168.203125 216.328125 168.203125 C 212.953125 168.203125 210.265625 169.199219 208.273438 171.191406 C 206.285156 173.097656 205.289062 176.214844 205.289062 180.542969 L 205.289062 188.46875 L 202.949219 185.609375 L 248.539062 185.609375 L 248.539062 251.203125 L 232.304688 251.203125 L 232.304688 197.820312 L 205.417969 197.820312 L 205.417969 251.203125 Z M 231.394531 173.269531 L 231.394531 157.425781 L 249.449219 157.425781 L 249.449219 173.269531 Z M 266.199219 251.203125 L 266.199219 201.976562 C 266.199219 199.292969 266.113281 196.5625 265.941406 193.792969 C 265.765625 191.023438 265.507812 188.292969 265.160156 185.609375 L 280.875 185.609375 L 282.175781 198.597656 L 280.617188 198.597656 C 282.695312 194.007812 285.769531 190.503906 289.839844 188.078125 C 293.910156 185.566406 298.628906 184.3125 303.996094 184.3125 C 311.703125 184.3125 317.503906 186.476562 321.402344 190.804688 C 325.296875 195.136719 327.246094 201.890625 327.246094 211.066406 L 327.246094 251.203125 L 311.011719 251.203125 L 311.011719 211.847656 C 311.011719 206.566406 309.972656 202.796875 307.894531 200.546875 C 305.902344 198.210938 302.871094 197.039062 298.800781 197.039062 C 293.777344 197.039062 289.796875 198.597656 286.851562 201.714844 C 283.90625 204.832031 282.4375 208.988281 282.4375 214.183594 L 282.4375 251.203125 Z M 369.789062 252.503906 C 364.074219 252.503906 359.054688 251.160156 354.722656 248.476562 C 350.394531 245.707031 347.015625 241.765625 344.59375 236.65625 C 342.167969 231.546875 340.957031 225.441406 340.957031 218.34375 C 340.957031 211.242188 342.167969 205.179688 344.59375 200.15625 C 347.015625 195.046875 350.394531 191.152344 354.722656 188.46875 C 359.054688 185.695312 364.074219 184.3125 369.789062 184.3125 C 375.332031 184.3125 380.179688 185.695312 384.339844 188.46875 C 388.582031 191.152344 391.394531 194.789062 392.78125 199.378906 L 391.351562 199.378906 L 392.78125 185.609375 L 408.367188 185.609375 C 408.109375 188.292969 407.847656 191.023438 407.589844 193.792969 C 407.414062 196.5625 407.328125 199.292969 407.328125 201.976562 L 407.328125 251.203125 L 391.222656 251.203125 L 391.09375 237.695312 L 392.652344 237.695312 C 391.265625 242.199219 388.453125 245.792969 384.207031 248.476562 C 379.964844 251.160156 375.160156 252.503906 369.789062 252.503906 Z M 374.335938 240.035156 C 379.445312 240.035156 383.558594 238.257812 386.675781 234.707031 C 389.792969 231.070312 391.351562 225.617188 391.351562 218.34375 C 391.351562 211.066406 389.792969 205.65625 386.675781 202.105469 C 383.558594 198.554688 379.445312 196.78125 374.335938 196.78125 C 369.226562 196.78125 365.113281 198.554688 361.996094 202.105469 C 358.878906 205.65625 357.320312 211.066406 357.320312 218.34375 C 357.320312 225.617188 358.835938 231.070312 361.867188 234.707031 C 364.984375 238.257812 369.140625 240.035156 374.335938 240.035156 Z M 425.007812 251.203125 L 425.007812 201.976562 C 425.007812 199.292969 424.921875 196.5625 424.75 193.792969 C 424.574219 191.023438 424.316406 188.292969 423.96875 185.609375 L 439.6875 185.609375 L 440.984375 198.597656 L 439.425781 198.597656 C 441.503906 194.007812 444.578125 190.503906 448.648438 188.078125 C 452.71875 185.566406 457.4375 184.3125 462.804688 184.3125 C 470.515625 184.3125 476.3125 186.476562 480.210938 190.804688 C 484.105469 195.136719 486.054688 201.890625 486.054688 211.066406 L 486.054688 251.203125 L 469.820312 251.203125 L 469.820312 211.847656 C 469.820312 206.566406 468.78125 202.796875 466.703125 200.546875 C 464.710938 198.210938 461.679688 197.039062 457.609375 197.039062 C 452.585938 197.039062 448.605469 198.597656 445.660156 201.714844 C 442.714844 204.832031 441.246094 208.988281 441.246094 214.183594 L 441.246094 251.203125 Z M 533.402344 252.503906 C 526.648438 252.503906 520.722656 251.117188 515.609375 248.347656 C 510.589844 245.574219 506.691406 241.636719 503.917969 236.527344 C 501.148438 231.332031 499.761719 225.183594 499.761719 218.082031 C 499.761719 210.980469 501.148438 204.921875 503.917969 199.898438 C 506.777344 194.875 510.71875 191.023438 515.738281 188.335938 C 520.761719 185.652344 526.648438 184.3125 533.402344 184.3125 C 537.738281 184.3125 541.933594 185.003906 546.003906 186.390625 C 550.160156 187.6875 553.535156 189.59375 556.132812 192.105469 L 551.199219 203.40625 C 548.859375 201.238281 546.222656 199.636719 543.273438 198.597656 C 540.417969 197.472656 537.605469 196.910156 534.832031 196.910156 C 529.035156 196.910156 524.488281 198.730469 521.195312 202.367188 C 517.992188 206.003906 516.386719 211.285156 516.386719 218.210938 C 516.386719 225.140625 517.992188 230.464844 521.195312 234.1875 C 524.488281 237.910156 529.035156 239.773438 534.832031 239.773438 C 537.519531 239.773438 540.289062 239.253906 543.144531 238.214844 C 546.089844 237.175781 548.777344 235.574219 551.199219 233.410156 L 556.132812 244.578125 C 553.453125 247.089844 550.03125 249.039062 545.875 250.425781 C 541.804688 251.808594 537.648438 252.503906 533.402344 252.503906 Z M 599.144531 252.503906 C 588.152344 252.503906 579.53125 249.472656 573.296875 243.410156 C 567.0625 237.347656 563.945312 229.035156 563.945312 218.472656 C 563.945312 211.628906 565.292969 205.65625 567.972656 200.546875 C 570.660156 195.4375 574.382812 191.453125 579.144531 188.597656 C 583.996094 185.738281 589.621094 184.3125 596.027344 184.3125 C 602.351562 184.3125 607.636719 185.652344 611.875 188.335938 C 616.121094 191.023438 619.324219 194.789062 621.488281 199.636719 C 623.742188 204.488281 624.863281 210.160156 624.863281 216.652344 L 624.863281 220.941406 L 577.066406 220.941406 L 577.066406 212.367188 L 613.304688 212.367188 L 611.09375 214.183594 C 611.09375 208.125 609.796875 203.492188 607.199219 200.289062 C 604.6875 197.082031 601.011719 195.480469 596.160156 195.480469 C 590.792969 195.480469 586.636719 197.386719 583.6875 201.195312 C 580.832031 205.007812 579.402344 210.332031 579.402344 217.171875 L 579.402344 218.863281 C 579.402344 225.960938 581.136719 231.289062 584.597656 234.835938 C 588.152344 238.300781 593.128906 240.035156 599.535156 240.035156 C 603.261719 240.035156 606.726562 239.558594 609.925781 238.605469 C 613.21875 237.566406 616.335938 235.921875 619.277344 233.667969 L 624.085938 244.578125 C 620.96875 247.089844 617.246094 249.039062 612.914062 250.425781 C 608.585938 251.808594 604 252.503906 599.144531 252.503906 Z M 636.792969 251.203125 L 636.792969 233.148438 L 654.980469 233.148438 L 654.980469 251.203125 Z M 695.777344 252.503906 C 690.0625 252.503906 685.042969 251.160156 680.710938 248.476562 C 676.382812 245.707031 673.007812 241.765625 670.578125 236.65625 C 668.160156 231.546875 666.941406 225.441406 666.941406 218.34375 C 666.941406 211.242188 668.160156 205.179688 670.578125 200.15625 C 673.007812 195.046875 676.382812 191.152344 680.710938 188.46875 C 685.042969 185.695312 690.0625 184.3125 695.777344 184.3125 C 701.320312 184.3125 706.167969 185.695312 710.324219 188.46875 C 714.570312 191.152344 717.386719 194.789062 718.769531 199.378906 L 717.339844 199.378906 L 718.769531 185.609375 L 734.355469 185.609375 C 734.09375 188.292969 733.835938 191.023438 733.574219 193.792969 C 733.402344 196.5625 733.316406 199.292969 733.316406 201.976562 L 733.316406 251.203125 L 717.210938 251.203125 L 717.078125 237.695312 L 718.636719 237.695312 C 717.257812 242.199219 714.441406 245.792969 710.195312 248.476562 C 705.957031 251.160156 701.148438 252.503906 695.777344 252.503906 Z M 700.324219 240.035156 C 705.4375 240.035156 709.546875 238.257812 712.664062 234.707031 C 715.78125 231.070312 717.339844 225.617188 717.339844 218.34375 C 717.339844 211.066406 715.78125 205.65625 712.664062 202.105469 C 709.546875 198.554688 705.4375 196.78125 700.324219 196.78125 C 695.214844 196.78125 691.101562 198.554688 687.984375 202.105469 C 684.867188 205.65625 683.308594 211.066406 683.308594 218.34375 C 683.308594 225.617188 684.824219 231.070312 687.855469 234.707031 C 690.972656 238.257812 695.128906 240.035156 700.324219 240.035156 Z M 751 251.203125 L 751 185.609375 L 767.234375 185.609375 L 767.234375 251.203125 Z M 750.089844 173.269531 L 750.089844 157.425781 L 768.144531 157.425781 L 768.144531 173.269531 Z M 750.089844 173.269531 " fill-opacity="1" fill-rule="nonzero"/></svg>